#!OML:ASF C:\Vicon Data\Big\jianyuan-12\jianyuan\Session 1\Capture.male.ASF
:FULLY-SPECIFIED
:DEGREES
223
root -12.163289 16.758616 -8.226964 2.150307 -30.863252 11.114565
lowerback -8.622031 -2.914157 -9.983962 
upperback 2.056968 -2.616302 -1.718508 
thorax 7.441926 -1.661728 3.374164 
lowerneck -1.829882 -5.508448 -6.544531 
upperneck 8.040680 -7.556698 6.398403 
head 3.531713 -3.728022 3.009179 
rclavicle 0.000000 0.000000 
rhumerus -44.262651 -32.121364 -72.976711 
rradius 33.977418 
rwrist 38.738929 
rhand -22.309536 -4.585217 
rfingers 0.000000 
rthumb 4.109877 -34.525284 
lclavicle 0.000000 0.000000 
lhumerus -16.205399 19.372945 84.824098 
lradius 36.695560 
lwrist -37.635285 
lhand -11.612236 3.761431 
lfingers 0.000000 
lthumb 14.430595 33.239758 
rfemur -37.022845 -4.121505 12.152925 
rtibia 32.070109 
rfoot -17.130240 -8.600680 
rtoes -19.231345 
lfemur -6.144258 -3.155923 -32.289529 
ltibia 19.242979 
lfoot -26.575928 4.958720 
ltoes -12.520605 
224
root -12.196904 16.759472 -8.167048 2.201845 -30.900365 11.049482
lowerback -8.620216 -2.900039 -9.913222 
upperback 1.994009 -2.610583 -1.715467 
thorax 7.367640 -1.651269 3.341566 
lowerneck -1.667054 -5.496756 -6.521979 
upperneck 8.009742 -7.555737 6.483974 
head 3.493374 -3.726793 3.038767 
rclavicle 0.000000 0.000000 
rhumerus -44.590930 -32.288593 -72.741746 
rradius 33.967549 
rwrist 39.169558 
rhand -22.245677 -4.896796 
rfingers 0.000000 
rthumb 4.171495 -34.835727 
lclavicle 0.000000 0.000000 
lhumerus -16.133827 19.064467 84.880158 
lradius 36.896819 
lwrist -37.349660 
lhand -11.667494 3.861051 
lfingers 0.000000 
lthumb 14.377371 33.343114 
rfemur -36.731376 -3.683923 12.016207 
rtibia 30.287276 
rfoot -16.792878 -8.715535 
rtoes -20.078004 
lfemur -5.628053 -3.167463 -32.254574 
ltibia 18.738396 
lfoot -26.609989 5.058784 
ltoes -12.849567 
225
root -12.227958 16.753109 -8.104571 2.083704 -30.937172 11.167328
lowerback -8.657387 -2.920000 -9.961497 
upperback 2.097811 -2.618716 -1.728219 
thorax 7.505303 -1.665336 3.348038 
lowerneck -1.844627 -5.495178 -6.594041 
upperneck 7.999854 -7.546967 6.551411 
head 3.531130 -3.719780 3.072128 
rclavicle 0.000000 0.000000 
rhumerus -44.519197 -32.419943 -72.693164 
rradius 33.915572 
rwrist 39.084752 
rhand -22.203100 -4.745077 
rfingers 0.000000 
rthumb 4.212677 -34.683155 
lclavicle 0.000000 0.000000 
lhumerus -15.797383 18.950215 85.004961 
lradius 37.075296 
lwrist -37.169227 
lhand -11.515229 3.575287 
lfingers 0.000000 
lthumb 14.524078 33.046908 
rfemur -36.389237 -3.186801 11.617842 
rtibia 28.589531 
rfoot -16.522549 -8.775628 
rtoes -19.391469 
lfemur -5.004213 -3.214353 -32.414815 
ltibia 18.185436 
lfoot -26.603000 5.234373 
ltoes -13.065854 
226
root -12.260860 16.748444 -8.043075 1.961956 -30.967316 11.244501
lowerback -8.634268 -2.928504 -10.028629 
upperback 2.148041 -2.623078 -1.710975 
thorax 7.552066 -1.674316 3.401978 
lowerneck -1.895699 -5.514966 -6.653955 
upperneck 8.039363 -7.570388 6.558763 
head 3.560367 -3.732002 3.083538 
rclavicle 0.000000 0.000000 
rhumerus -44.578255 -32.467840 -72.563838 
rradius 33.859943 
rwrist 39.054266 
rhand -22.105634 -4.584754 
rfingers 0.000000 
rthumb 4.306774 -34.520936 
lclavicle 0.000000 0.000000 
lhumerus -15.629508 18.706718 85.151934 
lradius 37.291213 
lwrist -36.877433 
lhand -11.580074 3.588494 
lfingers 0.000000 
lthumb 14.461622 33.064555 
rfemur -35.978172 -2.647666 11.238531 
rtibia 26.905814 
rfoot -16.354086 -8.767382 
rtoes -19.385885 
lfemur -4.383250 -3.153738 -32.523114 
ltibia 17.678192 
lfoot -26.577073 5.307635 
ltoes -13.205437 
227
root -12.294971 16.745817 -7.983240 1.890416 -30.965597 11.334594
lowerback -8.622334 -2.930615 -10.113035 
upperback 2.115958 -2.619225 -1.716781 
thorax 7.514455 -1.673402 3.444706 
lowerneck -1.726246 -5.525671 -6.655876 
upperneck 8.063887 -7.599452 6.616897 
head 3.468752 -3.743343 3.044546 
rclavicle 0.000000 0.000000 
rhumerus -44.855843 -32.567957 -72.301940 
rradius 33.856540 
rwrist 39.272983 
rhand -22.004473 -4.524517 
rfingers 0.000000 
rthumb 4.404447 -34.458739 
lclavicle 0.000000 0.000000 
lhumerus -15.585382 18.383901 85.259398 
lradius 37.563512 
lwrist -36.503044 
lhand -11.563948 3.714163 
lfingers 0.000000 
lthumb 14.477163 33.189079 
rfemur -35.643947 -2.296099 10.946654 
rtibia 25.293483 
rfoot -15.957692 -8.855524 
rtoes -20.316536 
lfemur -3.838658 -3.149182 -32.633215 
ltibia 17.193850 
lfoot -26.541466 5.428139 
ltoes -13.482701 
228
root -12.327048 16.739866 -7.923819 1.901930 -30.974711 11.390462
lowerback -8.705797 -2.972614 -10.138099 
upperback 2.157131 -2.660628 -1.692959 
thorax 7.616082 -1.700529 3.471955 
lowerneck -1.893829 -5.512763 -6.709207 
upperneck 8.233457 -7.591540 6.756016 
head 3.348744 -3.721540 2.911920 
rclavicle 0.000000 0.000000 
rhumerus -44.878229 -32.743768 -72.121773 
rradius 33.719985 
rwrist 39.706635 
rhand -22.081789 -4.391325 
rfingers 0.000000 
rthumb 4.329784 -34.327071 
lclavicle 0.000000 0.000000 
lhumerus -15.363578 18.249630 85.369365 
lradius 37.779622 
lwrist -36.363350 
lhand -11.442674 3.691127 
lfingers 0.000000 
lthumb 14.594057 33.157623 
rfemur -35.373893 -1.896235 10.626993 
rtibia 23.729446 
rfoot -15.674803 -8.851737 
rtoes -20.749816 
lfemur -3.376769 -3.126928 -32.715038 
ltibia 16.716884 
lfoot -26.484546 5.533416 
ltoes -13.771104 
229
root -12.360506 16.736331 -7.869851 1.828515 -30.952497 11.386195
lowerback -8.620345 -2.969990 -10.163689 
upperback 2.172617 -2.665398 -1.676538 
thorax 7.586627 -1.703994 3.505909 
lowerneck -1.842345 -5.535541 -6.639858 
upperneck 7.978432 -7.595742 6.518624 
head 3.527665 -3.746564 3.066803 
rclavicle 0.000000 0.000000 
rhumerus -45.058361 -32.953274 -71.896398 
rradius 33.652814 
rwrist 39.949020 
rhand -21.992748 -4.287109 
rfingers 0.000000 
rthumb 4.415772 -34.221095 
lclavicle 0.000000 0.000000 
lhumerus -15.214715 17.931660 85.484009 
lradius 37.944164 
lwrist -36.142943 
lhand -11.470173 3.712353 
lfingers 0.000000 
lthumb 14.567558 33.180783 
rfemur -35.029165 -1.469927 10.368391 
rtibia 22.269894 
rfoot -15.415263 -8.910858 
rtoes -21.338212 
lfemur -2.805458 -3.064032 -32.716405 
ltibia 16.226993 
lfoot -26.399305 5.583670 
ltoes -14.057921 
230
root -12.395114 16.730953 -7.812788 1.722325 -30.922097 11.429160
lowerback -8.539168 -2.993273 -10.219485 
upperback 2.176920 -2.700940 -1.665958 
thorax 7.553453 -1.722980 3.545378 
lowerneck -1.770853 -5.530358 -6.645699 
upperneck 7.939884 -7.589832 6.508634 
head 3.499800 -3.745519 3.066408 
rclavicle 0.000000 0.000000 
rhumerus -45.208344 -33.091683 -71.695445 
rradius 33.578816 
rwrist 40.111017 
rhand -21.918770 -4.301762 
rfingers 0.000000 
rthumb 4.487171 -34.234217 
lclavicle 0.000000 0.000000 
lhumerus -15.143953 17.618200 85.566957 
lradius 38.156294 
lwrist -35.807246 
lhand -11.511815 3.811170 
lfingers 0.000000 
lthumb 14.527456 33.282544 
rfemur -34.637568 -0.794324 9.917218 
rtibia 20.893766 
rfoot -15.383839 -9.161209 
rtoes -21.189112 
lfemur -2.206553 -3.019128 -32.778417 
ltibia 15.741222 
lfoot -26.314016 5.666265 
ltoes -14.427837 
231
root -12.427970 16.725320 -7.754693 1.605752 -30.901660 11.536852
lowerback -8.481683 -3.001786 -10.312899 
upperback 2.160182 -2.709743 -1.669273 
thorax 7.508835 -1.728939 3.595074 
lowerneck -1.634589 -5.521881 -6.758336 
upperneck 7.870320 -7.589302 6.652602 
head 3.464086 -3.746737 3.141193 
rclavicle 0.000000 0.000000 
rhumerus -45.437600 -33.204372 -71.481647 
rradius 33.553265 
rwrist 40.237677 
rhand -22.037195 -4.162975 
rfingers 0.000000 
rthumb 4.372833 -34.097874 
lclavicle 0.000000 0.000000 
lhumerus -15.167097 17.379341 85.624725 
lradius 38.401894 
lwrist -35.712986 
lhand -11.471913 3.759086 
lfingers 0.000000 
lthumb 14.565879 33.227635 
rfemur -34.303987 -0.182458 9.418765 
rtibia 19.663159 
rfoot -15.357071 -9.292805 
rtoes -21.229468 
lfemur -1.595719 -3.017576 -32.912244 
ltibia 15.187304 
lfoot -26.212337 5.793255 
ltoes -14.706502 
232
root -12.461164 16.717508 -7.696976 1.495804 -30.875061 11.701306
lowerback -8.499941 -3.019565 -10.422404 
upperback 2.178927 -2.713574 -1.710083 
thorax 7.545080 -1.736168 3.609846 
lowerneck -1.722615 -5.522546 -6.772170 
upperneck 7.984409 -7.595454 6.716441 
head 3.456335 -3.742495 3.103692 
rclavicle 0.000000 0.000000 
rhumerus -45.538264 -33.361585 -71.332627 
rradius 33.492202 
rwrist 40.308926 
rhand -22.003210 -4.188960 
rfingers 0.000000 
rthumb 4.405674 -34.123130 
lclavicle 0.000000 0.000000 
lhumerus -15.047908 17.242675 85.676257 
lradius 38.545032 
lwrist -35.612352 
lhand -11.423686 3.677243 
lfingers 0.000000 
lthumb 14.612271 33.142490 
rfemur -34.046876 0.299559 8.935646 
rtibia 18.536768 
rfoot -15.413755 -9.305299 
rtoes -21.536818 
lfemur -1.027667 -2.981177 -33.083942 
ltibia 14.633335 
lfoot -26.106128 5.826074 
ltoes -14.867400 
233
root -12.492075 16.710987 -7.639854 1.378902 -30.829348 11.865506
lowerback -8.505952 -3.066917 -10.507838 
upperback 2.204556 -2.761427 -1.741695 
thorax 7.587297 -1.764583 3.613990 
lowerneck -1.817644 -5.506692 -6.788716 
upperneck 8.198766 -7.592034 6.870034 
head 3.304320 -3.720355 2.938062 
rclavicle 0.000000 0.000000 
rhumerus -45.602056 -33.374201 -71.253015 
rradius 33.481714 
rwrist 40.397912 
rhand -21.815669 -4.382849 
rfingers 0.000000 
rthumb 4.586738 -34.313169 
lclavicle 0.000000 0.000000 
lhumerus -14.984400 17.045954 85.718921 
lradius 38.769692 
lwrist -35.405572 
lhand -11.503268 3.720862 
lfingers 0.000000 
lthumb 14.535619 33.191616 
rfemur -33.821138 0.664903 8.490705 
rtibia 17.518708 
rfoot -15.381330 -9.388664 
rtoes -21.859302 
lfemur -0.461842 -2.967036 -33.270059 
ltibia 14.097143 
lfoot -26.003944 5.894505 
ltoes -15.153324 
234
root -12.525822 16.705392 -7.585384 1.375061 -30.804595 11.850469
lowerback -8.536958 -3.076121 -10.503536 
upperback 2.194074 -2.772500 -1.721709 
thorax 7.596180 -1.770399 3.630073 
lowerneck -1.748631 -5.535309 -6.745301 
upperneck 7.942992 -7.601060 6.603393 
head 3.508598 -3.751504 3.118186 
rclavicle 0.000000 0.000000 
rhumerus -45.769792 -33.453206 -71.090176 
rradius 33.425933 
rwrist 40.536061 
rhand -21.804720 -4.285361 
rfingers 0.000000 
rthumb 4.597361 -34.215434 
lclavicle 0.000000 0.000000 
lhumerus -14.923865 16.793034 85.807084 
lradius 38.923924 
lwrist -35.174272 
lhand -11.435758 3.744641 
lfingers 0.000000 
lthumb 14.600663 33.210661 
rfemur -33.625029 1.070728 8.249262 
rtibia 16.611923 
rfoot -15.332923 -9.476611 
rtoes -21.839881 
lfemur 0.074823 -2.940396 -33.265288 
ltibia 13.561370 
lfoot -25.915212 5.948832 
ltoes -15.298157 
